<svg width="24" height="24" viewBox="0 0 24 24" fill="none" xmlns="http://www.w3.org/2000/svg">
<g clip-path="url(#clip0_165_2134)">
<mask id="mask0_165_2134" style="mask-type:luminance" maskUnits="userSpaceOnUse" x="0" y="0" width="24" height="24">
<path d="M24 0H0V24H24V0Z" fill="white"/>
</mask>
<g mask="url(#mask0_165_2134)">
<path d="M11.0007 13.56C10.2531 13.56 9.52227 13.3383 8.90065 12.923C8.27903 12.5076 7.79454 11.9172 7.50844 11.2265C7.22234 10.5358 7.14748 9.77581 7.29334 9.04256C7.43919 8.30931 7.7992 7.63578 8.32784 7.10714C8.85648 6.5785 9.53002 6.21849 10.2633 6.07263C10.9965 5.92678 11.7565 6.00164 12.4472 6.28774C13.138 6.57384 13.7283 7.05833 14.1437 7.67995C14.559 8.30156 14.7807 9.03239 14.7807 9.78C14.7781 10.7817 14.379 11.7416 13.6707 12.4499C12.9623 13.1583 12.0024 13.5574 11.0007 13.56ZM11.0007 8C10.6487 8 10.3045 8.1044 10.0118 8.29999C9.71907 8.49557 9.49092 8.77357 9.3562 9.09882C9.22148 9.42408 9.18622 9.78198 9.25491 10.1273C9.32359 10.4725 9.49312 10.7897 9.74205 11.0387C9.99099 11.2876 10.3082 11.4571 10.6534 11.5258C10.9987 11.5945 11.3566 11.5592 11.6819 11.4245C12.0071 11.2898 12.2851 11.0616 12.4807 10.7689C12.6763 10.4762 12.7807 10.1321 12.7807 9.78C12.7807 9.30792 12.5932 8.85517 12.2594 8.52135C11.9255 8.18754 11.4728 8 11.0007 8Z" fill="#1D1D1D"/>
<path d="M16 18C15.7348 18 15.4804 17.8946 15.2929 17.7071C15.1054 17.5196 15 17.2652 15 17C15 16.5482 14.911 16.1009 14.7381 15.6836C14.5653 15.2662 14.3119 14.887 13.9924 14.5675C13.673 14.2481 13.2938 13.9947 12.8764 13.8219C12.4591 13.649 12.0117 13.56 11.56 13.56H10.44C9.52765 13.56 8.65268 13.9224 8.00755 14.5675C7.36243 15.2127 7 16.0877 7 17C7 17.2652 6.89464 17.5196 6.70711 17.7071C6.51957 17.8946 6.26522 18 6 18C5.73478 18 5.48043 17.8946 5.29289 17.7071C5.10536 17.5196 5 17.2652 5 17C5.00264 15.558 5.57663 14.1759 6.59626 13.1563C7.61588 12.1366 8.99803 11.5626 10.44 11.56H11.56C13.002 11.5626 14.3841 12.1366 15.4037 13.1563C16.4234 14.1759 16.9974 15.558 17 17C17 17.2652 16.8946 17.5196 16.7071 17.7071C16.5196 17.8946 16.2652 18 16 18Z" fill="#1D1D1D"/>
<path d="M16.6 21H5.4C4.49908 20.9974 3.6358 20.6383 2.99875 20.0012C2.3617 19.3642 2.00264 18.5009 2 17.6V6.4C2.00264 5.49908 2.3617 4.6358 2.99875 3.99875C3.6358 3.3617 4.49908 3.00264 5.4 3H16.6C17.5009 3.00264 18.3642 3.3617 19.0012 3.99875C19.6383 4.6358 19.9974 5.49908 20 6.4V17.6C19.9974 18.5009 19.6383 19.3642 19.0012 20.0012C18.3642 20.6383 17.5009 20.9974 16.6 21ZM5.4 5C5.0287 5 4.6726 5.1475 4.41005 5.41005C4.1475 5.6726 4 6.0287 4 6.4V17.6C4 17.9713 4.1475 18.3274 4.41005 18.5899C4.6726 18.8525 5.0287 19 5.4 19H16.6C16.9713 19 17.3274 18.8525 17.5899 18.5899C17.8525 18.3274 18 17.9713 18 17.6V6.4C18 6.0287 17.8525 5.6726 17.5899 5.41005C17.3274 5.1475 16.9713 5 16.6 5H5.4Z" fill="#1D1D1D"/>
<path d="M21 10.78H19C18.7348 10.78 18.4804 10.6746 18.2929 10.4871C18.1054 10.2996 18 10.0452 18 9.78C18 9.51478 18.1054 9.26043 18.2929 9.07289C18.4804 8.88536 18.7348 8.78 19 8.78H21C21.2652 8.78 21.5196 8.88536 21.7071 9.07289C21.8946 9.26043 22 9.51478 22 9.78C22 10.0452 21.8946 10.2996 21.7071 10.4871C21.5196 10.6746 21.2652 10.78 21 10.78Z" fill="#1D1D1D"/>
<path d="M21 16H19C18.7348 16 18.4804 15.8946 18.2929 15.7071C18.1054 15.5196 18 15.2652 18 15C18 14.7348 18.1054 14.4804 18.2929 14.2929C18.4804 14.1054 18.7348 14 19 14H21C21.2652 14 21.5196 14.1054 21.7071 14.2929C21.8946 14.4804 22 14.7348 22 15C22 15.2652 21.8946 15.5196 21.7071 15.7071C21.5196 15.8946 21.2652 16 21 16Z" fill="#1D1D1D"/>
</g>
</g>
<defs>
<clipPath id="clip0_165_2134">
<rect width="24" height="24" fill="white"/>
</clipPath>
</defs>
</svg>
